<?xml version="1.0" encoding="UTF-8"?>
<svg version="1.1" xmlns="http://www.w3.org/2000/svg" width="1024" height="307">
<path d="M0 0 C2.98848264 0.72254432 5.99048916 1.37134662 9 2 C9 2.66 9 3.32 9 4 C9.763125 4.144375 10.52625 4.28875 11.3125 4.4375 C14 5 14 5 17 6 C17.33 6.66 17.66 7.32 18 8 C20.01669827 9.13350534 20.01669827 9.13350534 22 10 C22 10.66 22 11.32 22 12 C23.65 12.66 25.3 13.32 27 14 C27 14.66 27 15.32 27 16 C28.98 16.99 28.98 16.99 31 18 C31 18.66 31 19.32 31 20 C31.66 20 32.32 20 33 20 C34.4606285 22.64738916 35 23.89448334 35 27 C35.66 27 36.32 27 37 27 C37.20496094 27.85464844 37.40992188 28.70929688 37.62109375 29.58984375 C37.89050781 30.69457031 38.15992188 31.79929688 38.4375 32.9375 C38.70433594 34.03964844 38.97117188 35.14179687 39.24609375 36.27734375 C39.72995725 38.89421254 39.72995725 38.89421254 41 40 C41 46.27 41 52.54 41 59 C27.47 59 13.94 59 0 59 C-0.495 57.02 -0.495 57.02 -1 55 C-1.66 55 -2.32 55 -3 55 C-3.09796875 54.22914062 -3.1959375 53.45828125 -3.296875 52.6640625 C-3.44640625 51.66117188 -3.5959375 50.65828125 -3.75 49.625 C-3.95882812 48.12839844 -3.95882812 48.12839844 -4.171875 46.6015625 C-4.74386889 43.85438953 -4.74386889 43.85438953 -7.078125 42.6484375 C-7.71234375 42.43445313 -8.3465625 42.22046875 -9 42 C-9 41.34 -9 40.68 -9 40 C-9.94875 39.690625 -10.8975 39.38125 -11.875 39.0625 C-15 38 -15 38 -17 37 C-17 36.34 -17 35.68 -17 35 C-23.93 35 -30.86 35 -38 35 C-38 35.66 -38 36.32 -38 37 C-38.60328125 37.25394531 -39.2065625 37.50789063 -39.828125 37.76953125 C-43.91829836 39.53094462 -47.50269608 41.20215687 -51 44 C-51.66 44 -52.32 44 -53 44 C-53.66 45.32 -54.32 46.64 -55 48 C-55.66 48 -56.32 48 -57 48 C-57.309375 48.78375 -57.61875 49.5675 -57.9375 50.375 C-59 53 -59 53 -60 55 C-60.66 55 -61.32 55 -62 55 C-62.66 56.98 -63.32 58.96 -64 61 C-64.66 61 -65.32 61 -66 61 C-66.10957031 61.54527344 -66.21914062 62.09054688 -66.33203125 62.65234375 C-67.36109609 67.5466765 -68.69572451 72.19223721 -70.3359375 76.9140625 C-71.18314664 79.57529592 -71.64530583 82.23338549 -72 85 C-72.66 85 -73.32 85 -74 85 C-73.88909054 88.35478581 -73.75871222 91.70855176 -73.625 95.0625 C-73.5940625 96.00544922 -73.563125 96.94839844 -73.53125 97.91992188 C-73.14675515 107.11575708 -71.17147792 115.24278312 -66 123 C-66 123.99 -66 124.98 -66 126 C-64.35 126.66 -62.7 127.32 -61 128 C-61 128.66 -61 129.32 -61 130 C-58.36 130.66 -55.72 131.32 -53 132 C-53 132.66 -53 133.32 -53 134 C-46.73 134 -40.46 134 -34 134 C-34 133.34 -34 132.68 -34 132 C-29.545 131.01 -29.545 131.01 -25 130 C-25 129.34 -25 128.68 -25 128 C-20.61538462 125 -20.61538462 125 -18 125 C-17.773125 124.29875 -17.54625 123.5975 -17.3125 122.875 C-15.432445 118.75678429 -13.09552334 114.79290072 -8.6875 113.125 C-8.130625 113.08375 -7.57375 113.0425 -7 113 C-7 112.34 -7 111.68 -7 111 C4.22 111 15.44 111 27 111 C27 111.66 27 112.32 27 113 C27.99 113 28.98 113 30 113 C30.8759457 120.73752038 28.01272428 125.50320831 24 132 C23.34 132 22.68 132 22 132 C21.90074219 132.57878906 21.80148438 133.15757812 21.69921875 133.75390625 C19.75287502 140.00612772 13.1161669 145.19261998 8 149 C7.34 149 6.68 149 6 149 C6 149.66 6 150.32 6 151 C4.35 151.66 2.7 152.32 1 153 C1 153.66 1 154.32 1 155 C-0.98 155.66 -2.96 156.32 -5 157 C-5 157.66 -5 158.32 -5 159 C-7.64738916 160.4606285 -8.89448334 161 -12 161 C-12 161.66 -12 162.32 -12 163 C-31.40447684 171.84169205 -59.5482988 173.81723373 -80 167 C-80 166.34 -80 165.68 -80 165 C-81.670625 164.7834375 -81.670625 164.7834375 -83.375 164.5625 C-87 164 -87 164 -89 163 C-89 162.34 -89 161.68 -89 161 C-90.03125 160.814375 -91.0625 160.62875 -92.125 160.4375 C-96.74495166 159.13902071 -99.54576808 156.03644737 -102 152 C-102 151.01 -102 150.02 -102 149 C-102.99 148.67 -103.98 148.34 -105 148 C-105.33 146.35 -105.66 144.7 -106 143 C-106.66 143 -107.32 143 -108 143 C-109.25664978 140.09399739 -110 138.20395416 -110 135 C-110.66 135 -111.32 135 -112 135 C-112.20496094 134.00097656 -112.40992188 133.00195312 -112.62109375 131.97265625 C-113.02521484 130.03712891 -113.02521484 130.03712891 -113.4375 128.0625 C-113.70433594 126.77472656 -113.97117187 125.48695313 -114.24609375 124.16015625 C-114.67181616 121.15361121 -114.67181616 121.15361121 -116 120 C-116.09946453 118.23140807 -116.13080217 116.45888549 -116.1328125 114.6875 C-116.13410156 113.61242187 -116.13539062 112.53734375 -116.13671875 111.4296875 C-116.13091797 109.73199219 -116.13091797 109.73199219 -116.125 108 C-116.12886719 106.86820312 -116.13273437 105.73640625 -116.13671875 104.5703125 C-116.13542969 103.49523437 -116.13414063 102.42015625 -116.1328125 101.3125 C-116.13168457 100.31863281 -116.13055664 99.32476562 -116.12939453 98.30078125 C-116 96 -116 96 -115 95 C-114.78550476 93.58585822 -114.62942965 92.16272962 -114.5 90.73828125 C-114.37625 89.43020508 -114.37625 89.43020508 -114.25 88.09570312 C-114.1675 87.17724609 -114.085 86.25878906 -114 85.3125 C-112.99453552 74.3545082 -112.99453552 74.3545082 -112 69 C-111.34 69 -110.68 69 -110 69 C-109.855625 67.9275 -109.71125 66.855 -109.5625 65.75 C-109.16250558 63.08337051 -108.72408076 60.58600271 -108 58 C-107.34 58 -106.68 58 -106 58 C-105.855625 57.05125 -105.71125 56.1025 -105.5625 55.125 C-105 52 -105 52 -104 50 C-103.34 50 -102.68 50 -102 50 C-101.87625 49.2575 -101.7525 48.515 -101.625 47.75 C-101.04513299 45.19858515 -100.26291261 43.2732427 -99 41 C-98.34 41 -97.68 41 -97 41 C-96.34 39.02 -95.68 37.04 -95 35 C-94.34 35 -93.68 35 -93 35 C-92.34 33.02 -91.68 31.04 -91 29 C-90.34 29 -89.68 29 -89 29 C-88.9175 28.4225 -88.835 27.845 -88.75 27.25 C-87.774018 24.32205399 -86.36488777 22.94755463 -84 21 C-83.01 21 -82.02 21 -81 21 C-80.731875 20.360625 -80.46375 19.72125 -80.1875 19.0625 C-79 17 -79 17 -76 16 C-75.566875 15.566875 -75.13375 15.13375 -74.6875 14.6875 C-69.74750319 9.74750319 -63.20202626 7.00890383 -57 4 C-56.30519531 3.64292969 -55.61039063 3.28585938 -54.89453125 2.91796875 C-49.90322371 0.49950015 -44.74188215 -0.21236826 -39.296875 -0.71484375 C-37.07123454 -0.99115626 -35.03811969 -1.48105993 -32.875 -2.0625 C-22.14441297 -4.59401173 -10.33982922 -3.51554194 0 0 Z " fill="#000000" transform="translate(132,71)"/>
<path d="M0 0 C8.58 0 17.16 0 26 0 C26 0.66 26 1.32 26 2 C26.99 2 27.98 2 29 2 C29.42196816 13.27592692 27.87274733 24.23733525 25.50390625 35.2421875 C24.68760955 39.70967175 24.19692837 44.21947164 23.69726562 48.73217773 C23.10357345 53.89642655 23.10357345 53.89642655 22 55 C21.70195916 56.77533555 21.46131443 58.56038886 21.24609375 60.34765625 C21.11396484 61.42724609 20.98183594 62.50683594 20.84570312 63.61914062 C20.64364258 65.32360352 20.64364258 65.32360352 20.4375 67.0625 C20.22963867 68.77276367 20.22963867 68.77276367 20.01757812 70.51757812 C19.67454899 73.34461136 19.33553857 76.17206953 19 79 C18.34 79 17.68 79 17 79 C16.93941406 80.07378906 16.87882812 81.14757812 16.81640625 82.25390625 C16.73192349 83.69011315 16.64727946 85.12631058 16.5625 86.5625 C16.52318359 87.26697266 16.48386719 87.97144531 16.44335938 88.69726562 C15.68761489 101.31238511 15.68761489 101.31238511 14 103 C13.70297986 104.62904268 13.46187054 106.26837631 13.24609375 107.91015625 C13.04790039 109.39418945 13.04790039 109.39418945 12.84570312 110.90820312 C12.71099609 111.94912109 12.57628906 112.99003906 12.4375 114.0625 C12.29892578 115.10728516 12.16035156 116.15207031 12.01757812 117.22851562 C11.67460733 119.81853644 11.33559369 122.40901469 11 125 C10.34 125 9.68 125 9 125 C8.97421875 125.88816406 8.9484375 126.77632813 8.921875 127.69140625 C8.53596427 136.38316846 7.50460541 144.80263808 6 153.375 C5.82178711 154.39150635 5.64357422 155.4080127 5.45996094 156.45532227 C4.14369846 163.71260307 4.14369846 163.71260307 3 166 C-1.46570449 166.0743839 -5.93107684 166.12871171 -10.3972168 166.16479492 C-11.91518438 166.17984353 -13.43310876 166.20028738 -14.95092773 166.22631836 C-17.13796677 166.26287653 -19.32442896 166.27976523 -21.51171875 166.29296875 C-23.48338013 166.31653442 -23.48338013 166.31653442 -25.49487305 166.34057617 C-29.20493176 165.98008778 -31.06683566 165.25004715 -34 163 C-35.60725635 159.78548731 -35.05748185 156.56387464 -35 153 C-36.12894876 153.93274109 -37.25300876 154.87140122 -38.375 155.8125 C-39.31472656 156.59560547 -39.31472656 156.59560547 -40.2734375 157.39453125 C-42.2221048 159.08225739 -42.2221048 159.08225739 -44 162 C-47.125 162.6875 -47.125 162.6875 -50 163 C-50 163.66 -50 164.32 -50 165 C-60.40418784 169.20169124 -74.34430305 170.0622293 -85 166 C-88.09749003 164.4798472 -91.06731535 162.81646189 -94 161 C-94 160.34 -94 159.68 -94 159 C-94.5775 158.814375 -95.155 158.62875 -95.75 158.4375 C-99.80804517 155.84486003 -101.50147318 151.49558046 -103 147 C-103.66 146.67 -104.32 146.34 -105 146 C-107.60304959 140.50467309 -107.19005748 134.93401693 -107 129 C-107.66 129 -108.32 129 -109 129 C-109.02685095 126.52076199 -109.04676547 124.0418116 -109.0625 121.5625 C-109.07506836 120.50192383 -109.07506836 120.50192383 -109.08789062 119.41992188 C-109.09653588 117.61306441 -109.05220011 115.80612397 -109 114 C-108.505 113.505 -108.505 113.505 -108 113 C-107.62702089 111.23709093 -107.30119534 109.46408188 -107 107.6875 C-106.44149484 104.41937214 -105.85262477 101.2049556 -105 98 C-104.34 98 -103.68 98 -103 98 C-102.896875 96.824375 -102.79375 95.64875 -102.6875 94.4375 C-102.15369888 90.21898835 -100.85508264 86.84757882 -99 83 C-98.67644531 82.32710938 -98.35289062 81.65421875 -98.01953125 80.9609375 C-94.29085689 73.33215548 -94.29085689 73.33215548 -92 70 C-91.34 70 -90.68 70 -90 70 C-89.896875 69.360625 -89.79375 68.72125 -89.6875 68.0625 C-89.460625 67.381875 -89.23375 66.70125 -89 66 C-87.515 65.505 -87.515 65.505 -86 65 C-85.731875 64.4225 -85.46375 63.845 -85.1875 63.25 C-83.47344229 60.0023117 -80.84891066 58.26750032 -78 56 C-77.54367187 55.51015625 -77.08734375 55.0203125 -76.6171875 54.515625 C-74.60454536 52.62938068 -72.5263945 51.5462998 -70.0625 50.3125 C-69.20785156 49.87550781 -68.35320312 49.43851563 -67.47265625 48.98828125 C-65 48 -65 48 -61 48 C-61 47.34 -61 46.68 -61 46 C-56.30591084 44.80514094 -51.74525212 44.85171791 -46.9375 44.875 C-45.73383789 44.86919922 -45.73383789 44.86919922 -44.50585938 44.86328125 C-43.72919922 44.86457031 -42.95253906 44.86585937 -42.15234375 44.8671875 C-41.45101318 44.86831543 -40.74968262 44.86944336 -40.02709961 44.87060547 C-37.91357741 45.00551656 -36.03439656 45.42526656 -34 46 C-34 46.66 -34 47.32 -34 48 C-33.443125 48.0825 -32.88625 48.165 -32.3125 48.25 C-29.23811154 49.24709896 -27.33757048 50.79229454 -25 53 C-25 53.99 -25 54.98 -25 56 C-23.68 56.66 -22.36 57.32 -21 58 C-21 58.99 -21 59.98 -21 61 C-20.01 61 -19.02 61 -18 61 C-17.67 59.68 -17.34 58.36 -17 57 C-16.34 57 -15.68 57 -15 57 C-15.02501587 55.97362427 -15.02501587 55.97362427 -15.05053711 54.92651367 C-15.15639034 46.99278135 -14.5993114 39.22040128 -13.77319336 31.33227539 C-13.55885823 29.27758883 -13.35603277 27.22197383 -13.15429688 25.16601562 C-12.13137199 15.13137199 -12.13137199 15.13137199 -11 14 C-10.54675337 11.45553626 -10.16464921 8.90525944 -9.79296875 6.34765625 C-9 4 -9 4 -7.09765625 2.69140625 C-4.63528716 1.87978739 -2.57638067 1.85686774 0 2 C0 1.34 0 0.68 0 0 Z M-46 75 C-46 75.66 -46 76.32 -46 77 C-47.2684375 77.061875 -47.2684375 77.061875 -48.5625 77.125 C-54.53919246 78.6463399 -58.30602253 82.64640168 -61.6875 87.6875 C-68.05401922 98.7816325 -70.79422481 111.18338347 -67.7265625 123.78125 C-65.85475397 129.49731046 -63.08470117 133.61019922 -58 137 C-51.79264081 139.06911973 -46.07793077 137.88625438 -40 136 C-39.67 135.34 -39.34 134.68 -39 134 C-38.3709375 133.69835937 -37.741875 133.39671875 -37.09375 133.0859375 C-30.88120943 129.86376161 -28.82067409 121.20656637 -26.796875 115.02734375 C-25.11882055 108.65238198 -24.81792939 102.42284323 -24.8125 95.875 C-24.79413086 94.69744141 -24.79413086 94.69744141 -24.77539062 93.49609375 C-24.76157891 88.03586096 -25.28461728 84.12944062 -28.8125 79.75 C-31.25614869 77.79508105 -32.92280281 77.3419108 -36 77 C-36 76.34 -36 75.68 -36 75 C-39.3 75 -42.6 75 -46 75 Z " fill="#000000" transform="translate(410,73)"/>
<path d="M0 0 C14.97686306 -0.02332977 29.95372472 -0.04097956 44.93060207 -0.05181217 C51.88416081 -0.05697496 58.83770827 -0.06401734 65.79125977 -0.07543945 C72.49557209 -0.08644694 79.19987025 -0.09227621 85.90419197 -0.09487724 C88.46837613 -0.09673202 91.03255962 -0.10035364 93.59673882 -0.10573006 C97.17445158 -0.11293659 100.75211519 -0.11399111 104.32983398 -0.11352539 C105.40157364 -0.11712067 106.47331329 -0.12071594 107.57752991 -0.12442017 C108.54653229 -0.1230455 109.51553467 -0.12167084 110.51390076 -0.12025452 C111.36102851 -0.12117631 112.20815626 -0.1220981 113.08095455 -0.12304783 C115 0 115 0 116 1 C118.18292774 1.23481693 120.37203174 1.41363323 122.5625 1.5625 C123.76003906 1.64628906 124.95757813 1.73007813 126.19140625 1.81640625 C127.11824219 1.87699219 128.04507813 1.93757813 129 2 C129 5.3 129 8.6 129 12 C128.34 12 127.68 12 127 12 C127.04125 13.216875 127.0825 14.43375 127.125 15.6875 C127.125 21.83368599 126.44106232 28.02226 125 34 C122.49450555 35.25274723 120.80264368 35.12029624 117.99951172 35.11352539 C116.43811966 35.11341209 116.43811966 35.11341209 114.84518433 35.11329651 C113.71807037 35.10813522 112.59095642 35.10297394 111.4296875 35.09765625 C110.27832306 35.0962413 109.12695862 35.09482635 107.94070435 35.09336853 C104.25211014 35.08775716 100.56357595 35.0752027 96.875 35.0625 C94.37890712 35.05748647 91.8828133 35.05292331 89.38671875 35.04882812 C83.25779191 35.03778403 77.12890024 35.0210348 71 35 C71.00507568 35.66894287 71.01015137 36.33788574 71.01538086 37.02709961 C71.01932861 37.91405518 71.02327637 38.80101074 71.02734375 39.71484375 C71.03241943 40.59003662 71.03749512 41.46522949 71.04272461 42.36694336 C70.88454288 52.11545712 70.88454288 52.11545712 69 54 C68.70151 55.84846443 68.46107178 57.70637897 68.24609375 59.56640625 C68.04790039 61.2534668 68.04790039 61.2534668 67.84570312 62.97460938 C67.64364258 64.75061523 67.64364258 64.75061523 67.4375 66.5625 C67.29892578 67.75037109 67.16035156 68.93824219 67.01757812 70.16210938 C66.67452352 73.10764722 66.33551453 76.05359533 66 79 C65.34 79 64.68 79 64 79 C63.93941406 80.134375 63.87882813 81.26875 63.81640625 82.4375 C63.73191506 83.95834135 63.64727149 85.47917425 63.5625 87 C63.52318359 87.74378906 63.48386719 88.48757812 63.44335938 89.25390625 C62.64642137 103.35357863 62.64642137 103.35357863 61 105 C60.70151 106.84846443 60.46107178 108.70637897 60.24609375 110.56640625 C60.04790039 112.2534668 60.04790039 112.2534668 59.84570312 113.97460938 C59.64364258 115.75061523 59.64364258 115.75061523 59.4375 117.5625 C59.29892578 118.75037109 59.16035156 119.93824219 59.01757812 121.16210938 C58.67452352 124.10764722 58.33551453 127.05359533 58 130 C57.34 130 56.68 130 56 130 C55.92652344 131.43666016 55.92652344 131.43666016 55.8515625 132.90234375 C55.44211997 140.3929571 54.88809783 147.85546127 54.0625 155.3125 C53.98789551 156.03493896 53.91329102 156.75737793 53.83642578 157.50170898 C53.42381654 161.04263878 53.01522582 162.97716127 51 166 C43.30237822 168.09889426 34.27436171 167.11537935 26.375 167.0625 C25.08464844 167.05798828 23.79429687 167.05347656 22.46484375 167.04882812 C19.30984625 167.03714295 16.15494863 167.02076044 13 167 C12.97062562 163.66668561 12.95307666 160.33340517 12.9375 157 C12.92912109 156.06542969 12.92074219 155.13085938 12.91210938 154.16796875 C12.89292669 148.68172071 13.10327627 143.41796714 14 138 C14.33 137.67 14.66 137.34 15 137 C15.28553667 135.30920433 15.51472007 133.60880484 15.71875 131.90625 C15.91017578 130.36130859 15.91017578 130.36130859 16.10546875 128.78515625 C16.30076172 127.15900391 16.30076172 127.15900391 16.5 125.5 C16.75650991 123.36411053 17.01672404 121.22866152 17.28125 119.09375 C17.39533203 118.14177734 17.50941406 117.18980469 17.62695312 116.20898438 C18 114 18 114 19 113 C19.28600244 111.23606874 19.51496932 109.46280964 19.71875 107.6875 C19.84636719 106.61242187 19.97398437 105.53734375 20.10546875 104.4296875 C20.23566406 103.29789062 20.36585938 102.16609375 20.5 101 C20.7564828 98.77037729 21.01669455 96.54117927 21.28125 94.3125 C21.39533203 93.31863281 21.50941406 92.32476562 21.62695312 91.30078125 C22 89 22 89 23 88 C23.29755261 86.29780482 23.53842039 84.58561171 23.75390625 82.87109375 C23.88603516 81.83662109 24.01816406 80.80214844 24.15429688 79.73632812 C24.28900391 78.64771484 24.42371094 77.55910156 24.5625 76.4375 C24.77036133 74.7987793 24.77036133 74.7987793 24.98242188 73.12695312 C25.32542319 70.41842553 25.66443515 67.70945731 26 65 C26.66 65 27.32 65 28 65 C27.95875 63.741875 27.9175 62.48375 27.875 61.1875 C27.85736668 55.65063837 28.86894808 50.40279265 30 45 C30.66 45 31.32 45 32 45 C32 41.7 32 38.4 32 35 C30.85523193 35.01571045 29.71046387 35.0314209 28.53100586 35.04760742 C24.26138414 35.10213423 19.99179289 35.13643249 15.72192383 35.16479492 C13.87812108 35.17982988 12.03435378 35.20026333 10.19067383 35.22631836 C7.5319745 35.26293561 4.87375029 35.27977943 2.21484375 35.29296875 C1.39789536 35.30845261 0.58094696 35.32393646 -0.26075745 35.33988953 C-5.5931209 35.34143804 -9.23476933 34.41464348 -14 32 C-14 31.01 -14 30.02 -14 29 C-14.66 29 -15.32 29 -16 29 C-16 24.71 -16 20.42 -16 16 C-15.34 16 -14.68 16 -14 16 C-13.90912109 15.07767578 -13.90912109 15.07767578 -13.81640625 14.13671875 C-13.69072266 12.92435547 -13.69072266 12.92435547 -13.5625 11.6875 C-13.48128906 10.88699219 -13.40007813 10.08648437 -13.31640625 9.26171875 C-13 7 -13 7 -12 4 C-8.79619983 1.86413322 -7.98060033 1.76867825 -4.3125 1.875 C-3.10013672 1.90207031 -3.10013672 1.90207031 -1.86328125 1.9296875 C-0.94095703 1.96449219 -0.94095703 1.96449219 0 2 C0 1.34 0 0.68 0 0 Z " fill="#000000" transform="translate(703,73)"/>
<path d="M0 0 C0 0.66 0 1.32 0 2 C1.6396875 2.2165625 1.6396875 2.2165625 3.3125 2.4375 C7 3 7 3 10 4 C10 4.66 10 5.32 10 6 C10.78375 6.2475 11.5675 6.495 12.375 6.75 C15 8 15 8 16.3125 9.9375 C17 12 17 12 17 15 C17.66 15 18.32 15 19 15 C23.17708398 29.35872618 21.13577881 45.40810973 19 60 C18.67 60.33 18.34 60.66 18 61 C17.64081016 63.27436595 17.33950118 65.55791795 17.0625 67.84375 C16.97750244 68.52804077 16.89250488 69.21233154 16.80493164 69.9173584 C16.53254388 72.11109291 16.2656298 74.30543754 16 76.5 C15.65067394 79.38603856 15.29584488 82.27131901 14.9375 85.15625 C14.70353516 87.08694336 14.70353516 87.08694336 14.46484375 89.05664062 C14 92 14 92 13 93 C12.70195916 94.77533555 12.46131443 96.56038886 12.24609375 98.34765625 C12.04790039 99.96704102 12.04790039 99.96704102 11.84570312 101.61914062 C11.64364258 103.32360352 11.64364258 103.32360352 11.4375 105.0625 C11.29892578 106.20267578 11.16035156 107.34285156 11.01757812 108.51757812 C10.67454899 111.34461136 10.33553857 114.17206953 10 117 C9.34 117 8.68 117 8 117 C8 117.99 8 118.98 8 120 C-3.55 120 -15.1 120 -27 120 C-27.4 90.8 -27.4 90.8 -24 84 C-23.70903923 82.04455365 -23.46546086 80.08195382 -23.24609375 78.1171875 C-23.04790039 76.36728516 -23.04790039 76.36728516 -22.84570312 74.58203125 C-22.71099609 73.35871094 -22.57628906 72.13539063 -22.4375 70.875 C-22.29892578 69.64394531 -22.16035156 68.41289062 -22.01757812 67.14453125 C-21.67499439 64.09671732 -21.3359537 61.04855069 -21 58 C-20.34 58 -19.68 58 -19 58 C-19 52.39 -19 46.78 -19 41 C-19.66 41 -20.32 41 -21 41 C-22.4606285 38.35261084 -23 37.10551666 -23 34 C-23.5775 33.855625 -24.155 33.71125 -24.75 33.5625 C-26.10619957 33.22345011 -27.45840209 32.86675514 -28.80078125 32.4765625 C-31.38940037 31.91561839 -33.78929417 31.83086481 -36.4375 31.8125 C-37.36433594 31.79832031 -38.29117188 31.78414062 -39.24609375 31.76953125 C-43.35408488 32.11332058 -46.00279106 33.17435389 -49.1796875 35.8046875 C-54.35397829 42.04492661 -55.71186629 51.1864521 -57 59 C-57.66 59 -58.32 59 -59 59 C-59.09087891 60.39412109 -59.09087891 60.39412109 -59.18359375 61.81640625 C-60.01581722 74.09490334 -60.01581722 74.09490334 -61 80 C-61.66 80 -62.32 80 -63 80 C-63.06058594 81.0621875 -63.12117187 82.124375 -63.18359375 83.21875 C-64.00202111 97.15671621 -64.00202111 97.15671621 -65 104 C-65.66 104 -66.32 104 -67 104 C-66.95875 105.155 -66.9175 106.31 -66.875 107.5 C-66.70868791 112.15673846 -67.76473785 115.0589514 -69 120 C-81.21 120 -93.42 120 -106 120 C-106 105.375 -106 105.375 -105 100 C-104.34 100 -103.68 100 -103 100 C-102.93941406 98.9378125 -102.87882812 97.875625 -102.81640625 96.78125 C-101.63571559 76.63571559 -101.63571559 76.63571559 -100 75 C-99.70297986 73.37095732 -99.46187054 71.73162369 -99.24609375 70.08984375 C-99.11396484 69.10048828 -98.98183594 68.11113281 -98.84570312 67.09179688 C-98.64364258 65.53041992 -98.64364258 65.53041992 -98.4375 63.9375 C-98.29892578 62.89271484 -98.16035156 61.84792969 -98.01757812 60.77148438 C-97.67460733 58.18146356 -97.33559369 55.59098531 -97 53 C-96.34 53 -95.68 53 -95 53 C-94.93941406 51.92621094 -94.87882812 50.85242188 -94.81640625 49.74609375 C-94.73192349 48.30988685 -94.64727946 46.87368942 -94.5625 45.4375 C-94.52318359 44.73302734 -94.48386719 44.02855469 -94.44335938 43.30273438 C-93.68761489 30.68761489 -93.68761489 30.68761489 -92 29 C-91.58319332 25.32452294 -91.23047748 21.65107069 -90.92578125 17.96484375 C-90.34428712 11.96264168 -89.43164621 6.43164621 -85 2 C-82.375 1.875 -82.375 1.875 -80 2 C-80 1.34 -80 0.68 -80 0 C-73.73 0 -67.46 0 -61 0 C-61 0.66 -61 1.32 -61 2 C-59.081875 1.9690625 -59.081875 1.9690625 -57.125 1.9375 C-53.25 1.875 -53.25 1.875 -51 3 C-49.29690079 6.66166329 -48.84881804 8.41686959 -49.875 12.375 C-50.24625 13.24125 -50.6175 14.1075 -51 15 C-47.7330195 14.20441538 -47.7330195 14.20441538 -45.5625 11.0625 C-43.25812675 8.30849294 -42.15141529 7.35060655 -39 6 C-38.67 5.34 -38.34 4.68 -38 4 C-35.37418862 2.42451317 -34.12900213 2 -31 2 C-31 1.34 -31 0.68 -31 0 C-20.51126152 -2.84440365 -10.48873848 -2.84440365 0 0 Z " fill="#000000" transform="translate(591,119)"/>
<path d="M0 0 C0 0.66 0 1.32 0 2 C4.455 2.99 4.455 2.99 9 4 C9 4.66 9 5.32 9 6 C10.175625 6.2165625 10.175625 6.2165625 11.375 6.4375 C14 7 14 7 16 8 C16 8.66 16 9.32 16 10 C17.0828125 10.3403125 17.0828125 10.3403125 18.1875 10.6875 C21.65088492 12.3037463 23.58100537 14.043451 26 17 C26.8125 20.3125 26.8125 20.3125 27 23 C27.66 23 28.32 23 29 23 C30.60355101 26.50776784 31.22036864 29.14354879 31 33 C31.66 33 32.32 33 33 33 C33 41.25 33 49.5 33 58 C32.34 58 31.68 58 31 58 C31.04125 59.155 31.0825 60.31 31.125 61.5 C31.14087433 65.94481301 30.21793105 69.73724131 29 74 C28.34 74 27.68 74 27 74 C26.95875 75.093125 26.9175 76.18625 26.875 77.3125 C26.14766973 83.24709334 23.05502545 87.96954457 20 93 C19.59910156 93.67160156 19.19820313 94.34320313 18.78515625 95.03515625 C17.75 96.6875 17.75 96.6875 16 99 C15.34 99 14.68 99 14 99 C13.7525 99.7425 13.505 100.485 13.25 101.25 C11.88708637 104.24840999 10.49904822 105.87959545 8 108 C6.515 108.495 6.515 108.495 5 109 C4.54625 109.46019531 4.0925 109.92039062 3.625 110.39453125 C1.60957504 112.38573236 -0.46547294 113.43155132 -3 114.6875 C-3.86625 115.12449219 -4.7325 115.56148438 -5.625 116.01171875 C-8 117 -8 117 -11 117 C-11 117.66 -11 118.32 -11 119 C-19.45295786 121.07313419 -27.28296246 122.48032656 -36 122 C-36 122.66 -36 123.32 -36 124 C-37.98 124 -39.96 124 -42 124 C-42 123.34 -42 122.68 -42 122 C-42.99966797 122.05220703 -42.99966797 122.05220703 -44.01953125 122.10546875 C-51.1754868 122.31564367 -57.20563125 121.2078413 -64 119 C-64 118.34 -64 117.68 -64 117 C-64.99 116.938125 -65.98 116.87625 -67 116.8125 C-71.66116407 116.1574688 -75.35106236 113.90237339 -79 111 C-81 108 -81 108 -81 105 C-81.99 104.67 -82.98 104.34 -84 104 C-84.495 101.525 -84.495 101.525 -85 99 C-85.66 99 -86.32 99 -87 99 C-88.45184478 94.46298506 -89.23509196 90.81938524 -89 86 C-89.66 86 -90.32 86 -91 86 C-91 79.4 -91 72.8 -91 66 C-90.34 66 -89.68 66 -89 66 C-89.03480469 65.2265625 -89.06960937 64.453125 -89.10546875 63.65625 C-89.27930243 56.96779226 -88.77465345 52.04924446 -86 46 C-85.42733602 44.50385087 -84.86461415 43.00385379 -84.3125 41.5 C-83.6628125 39.7675 -83.6628125 39.7675 -83 38 C-82.34 38 -81.68 38 -81 38 C-80.87625 37.46632812 -80.7525 36.93265625 -80.625 36.3828125 C-78.69708841 29.41823188 -75.0590145 24.14494256 -70 19 C-69.34 19 -68.68 19 -68 19 C-67.731875 18.360625 -67.46375 17.72125 -67.1875 17.0625 C-66 15 -66 15 -63 14 C-62.319375 13.2575 -62.319375 13.2575 -61.625 12.5 C-59.53081119 10.56690264 -57.77849308 10.37547204 -55 10 C-55 9.34 -55 8.68 -55 8 C-52.09399739 6.74335022 -50.20395416 6 -47 6 C-47 5.34 -47 4.68 -47 4 C-43.62902617 2.50178941 -41.79557881 2 -38 2 C-38 1.34 -38 0.68 -38 0 C-25.71604946 -3.38035003 -12.32134139 -2.98054047 0 0 Z M-28 29 C-28 29.66 -28 30.32 -28 31 C-28.9075 31.12375 -29.815 31.2475 -30.75 31.375 C-35.20270416 32.23128926 -38.04979383 33.5367145 -41 37 C-45.22000411 43.09338082 -45.22000411 43.09338082 -47 50 C-47.66 50 -48.32 50 -49 50 C-51.59149774 61.54604799 -51.91067056 72.4872584 -49 84 C-48.34 84 -47.68 84 -47 84 C-46.7525 84.94875 -46.505 85.8975 -46.25 86.875 C-45.30843444 90.02807731 -45.30843444 90.02807731 -43.125 91.375 C-40.72959061 92.18811088 -40.72959061 92.18811088 -37 92 C-37 92.66 -37 93.32 -37 94 C-36.01 94 -35.02 94 -34 94 C-34 93.34 -34 92.68 -34 92 C-33.38511719 91.93941406 -32.77023438 91.87882812 -32.13671875 91.81640625 C-31.32847656 91.73261719 -30.52023438 91.64882812 -29.6875 91.5625 C-28.88699219 91.48128906 -28.08648437 91.40007812 -27.26171875 91.31640625 C-24.83912821 91.04734307 -24.83912821 91.04734307 -22 90 C-21.34 89.01 -20.68 88.02 -20 87 C-18.515 86.505 -18.515 86.505 -17 86 C-15.32131575 84.02013778 -15.32131575 84.02013778 -13.8125 81.625 C-13.28269531 80.83351562 -12.75289062 80.04203125 -12.20703125 79.2265625 C-10.76170938 76.98254933 -10.76170938 76.98254933 -11 74 C-10.34 74 -9.68 74 -9 74 C-7.2946763 67.34788414 -6.69044277 61.29154479 -6.75 54.4375 C-6.74226563 53.54353516 -6.73453125 52.64957031 -6.7265625 51.72851562 C-6.74288467 46.15041545 -7.42590142 41.35318444 -9 36 C-9.66 36 -10.32 36 -11 36 C-11.495 34.515 -11.495 34.515 -12 33 C-17.07762523 29.21394029 -21.83275229 28.55948231 -28 29 Z " fill="#000000" transform="translate(262,119)"/>
<path d="M0 0 C4.19918185 -0.07430494 8.39801274 -0.12867413 12.59765625 -0.16479492 C14.02545846 -0.17985681 15.4532146 -0.20031062 16.88085938 -0.22631836 C18.93631373 -0.26281842 20.99115505 -0.27975166 23.046875 -0.29296875 C24.90070801 -0.31653442 24.90070801 -0.31653442 26.79199219 -0.34057617 C30.22010314 0.02336711 31.59844716 0.57561381 34 3 C34.59309515 5.79679732 34.23329216 8.10717722 34 11 C33.67 11.33 33.34 11.66 33 12 C32.73684324 13.66120056 32.53180961 15.33167727 32.3515625 17.00390625 C32.23482178 18.04691895 32.11808105 19.08993164 31.99780273 20.16455078 C31.81326538 21.84653564 31.81326538 21.84653564 31.625 23.5625 C30.63397624 32.24055451 29.41763955 40.76535522 27.69140625 49.32421875 C26.70190159 54.58480565 26.0613671 59.86972761 25.4296875 65.18359375 C25 68 25 68 24 69 C23.71446333 70.69079567 23.48527993 72.39119516 23.28125 74.09375 C23.15363281 75.12371094 23.02601563 76.15367187 22.89453125 77.21484375 C22.69923828 78.84099609 22.69923828 78.84099609 22.5 80.5 C22.24349009 82.63588947 21.98327596 84.77133848 21.71875 86.90625 C21.60466797 87.85822266 21.49058594 88.81019531 21.37304688 89.79101562 C21 92 21 92 20 93 C19.70195916 94.77533555 19.46131443 96.56038886 19.24609375 98.34765625 C19.11396484 99.42724609 18.98183594 100.50683594 18.84570312 101.61914062 C18.71099609 102.75544922 18.57628906 103.89175781 18.4375 105.0625 C18.29892578 106.20267578 18.16035156 107.34285156 18.01757812 108.51757812 C17.67454899 111.34461136 17.33553857 114.17206953 17 117 C16.34 117 15.68 117 15 117 C14.90912109 118.61068359 14.90912109 118.61068359 14.81640625 120.25390625 C14.73192349 121.69011315 14.64727946 123.12631058 14.5625 124.5625 C14.52318359 125.26697266 14.48386719 125.97144531 14.44335938 126.69726562 C14.07120391 132.90939908 13.37226643 138.78852535 11.54296875 144.7578125 C10.25420219 150.07976937 9.70720653 155.57557545 9 161 C8.34 161 7.68 161 7 161 C6.855625 161.639375 6.71125 162.27875 6.5625 162.9375 C6 165 6 165 5 166 C2.55169574 166.08843793 0.13179401 166.11528752 -2.31640625 166.09765625 C-3.04746078 166.0962413 -3.77851532 166.09482635 -4.53172302 166.09336853 C-6.87535632 166.08775408 -9.21889539 166.07519922 -11.5625 166.0625 C-13.14778508 166.05748686 -14.73307166 166.05292363 -16.31835938 166.04882812 C-20.2122761 166.03777997 -24.10612205 166.02050572 -28 166 C-28.99 164.02 -29.98 162.04 -31 160 C-30.67 159.67 -30.34 159.34 -30 159 C-29.70071191 157.0053097 -29.46064363 155.00166876 -29.24609375 152.99609375 C-29.11396484 151.78115234 -28.98183594 150.56621094 -28.84570312 149.31445312 C-28.71099609 148.03505859 -28.57628906 146.75566406 -28.4375 145.4375 C-28.22963867 143.51260742 -28.22963867 143.51260742 -28.01757812 141.54882812 C-27.67447856 138.36628384 -27.33547212 135.18335586 -27 132 C-26.34 132 -25.68 132 -25 132 C-25.04125 130.989375 -25.0825 129.97875 -25.125 128.9375 C-25.14919665 122.24712666 -23.96344101 115.60645261 -23 109 C-22.34 109 -21.68 109 -21 109 C-21.020625 107.71222656 -21.04125 106.42445313 -21.0625 105.09765625 C-21.0625 100.15503087 -20.59706532 95.33908354 -20 90.4375 C-19.90460937 89.61958984 -19.80921875 88.80167969 -19.7109375 87.95898438 C-19.47855491 85.97211325 -19.23994484 83.98597206 -19 82 C-18.34 82 -17.68 82 -17 82 C-17.01804687 80.71738281 -17.03609375 79.43476563 -17.0546875 78.11328125 C-17.05272259 73.09588293 -16.65484666 68.17359431 -16.125 63.1875 C-16.04636719 62.35541016 -15.96773437 61.52332031 -15.88671875 60.66601562 C-15.80292969 59.86228516 -15.71914063 59.05855469 -15.6328125 58.23046875 C-15.55949707 57.51270264 -15.48618164 56.79493652 -15.41064453 56.05541992 C-15 54 -15 54 -14.01147461 52.0859375 C-12.7572567 49.49939687 -12.50119338 47.24869643 -12.18359375 44.39453125 C-12.05919922 43.32912109 -11.93480469 42.26371094 -11.80664062 41.16601562 C-11.68482422 40.05935547 -11.56300781 38.95269531 -11.4375 37.8125 C-11.18998467 35.61024819 -10.9388825 33.4083955 -10.68359375 31.20703125 C-10.57587646 30.2322583 -10.46815918 29.25748535 -10.35717773 28.25317383 C-10 26 -10 26 -9 25 C-8.70490939 23.59049312 -8.46294037 22.16973895 -8.24609375 20.74609375 C-8.11396484 19.89208984 -7.98183594 19.03808594 -7.84570312 18.15820312 C-7.71099609 17.26037109 -7.57628906 16.36253906 -7.4375 15.4375 C-7.29892578 14.53580078 -7.16035156 13.63410156 -7.01757812 12.70507812 C-6.67471949 10.47058567 -6.33569977 8.2355773 -6 6 C-5.34 6 -4.68 6 -4 6 C-3.67 4.68 -3.34 3.36 -3 2 C-2.01 2 -1.02 2 0 2 C0 1.34 0 0.68 0 0 Z " fill="#000000" transform="translate(643,73)"/>
<path d="M0 0 C9.57 0 19.14 0 29 0 C29 3.96 29 7.92 29 12 C28.34 12 27.68 12 27 12 C26.90912109 13.62808594 26.90912109 13.62808594 26.81640625 15.2890625 C26.73193936 16.73438486 26.64729449 18.17969682 26.5625 19.625 C26.52318359 20.33785156 26.48386719 21.05070312 26.44335938 21.78515625 C26.19690319 25.91803682 25.76529947 29.92269024 25 34 C24.34 34 23.68 34 23 34 C22.95101562 35.00417969 22.90203125 36.00835937 22.8515625 37.04296875 C22.30865806 47.29013252 21.3682333 57.36128912 19 67.375 C17.47675048 73.81858725 16.81290547 80.43622074 16 87 C15.34 87 14.68 87 14 87 C13.90912109 88.62808594 13.90912109 88.62808594 13.81640625 90.2890625 C13.73193936 91.73438486 13.64729449 93.17969682 13.5625 94.625 C13.52318359 95.33785156 13.48386719 96.05070312 13.44335938 96.78515625 C13.19690319 100.91803682 12.76529947 104.92269024 12 109 C11.34 109 10.68 109 10 109 C9.67 112.63 9.34 116.26 9 120 C4.85572898 120.04976954 0.71162047 120.08589288 -3.43286133 120.10986328 C-4.84011876 120.11986557 -6.2473557 120.13347178 -7.65454102 120.15087891 C-9.68771448 120.17538366 -11.72061106 120.18654083 -13.75390625 120.1953125 C-14.97408447 120.20578613 -16.1942627 120.21625977 -17.45141602 120.22705078 C-21.30506028 119.98048118 -24.34213 119.18578175 -28 118 C-29.16063604 113.74433453 -28.76173392 110.3164922 -28 106 C-27.34 106 -26.68 106 -26 106 C-25.93941406 105.0821875 -25.87882812 104.164375 -25.81640625 103.21875 C-25.37688758 96.781492 -24.89469001 90.39064295 -24 84 C-23.34 84 -22.68 84 -22 84 C-21.92652344 82.61941406 -21.92652344 82.61941406 -21.8515625 81.2109375 C-21.19923798 70.1664085 -20.09063494 59.29007125 -17.5078125 48.5078125 C-16.33870114 42.73420099 -15.72378553 36.84418318 -15 31 C-14.34 31 -13.68 31 -13 31 C-12.90912109 29.38931641 -12.90912109 29.38931641 -12.81640625 27.74609375 C-12.73192349 26.30988685 -12.64727946 24.87368942 -12.5625 23.4375 C-12.52318359 22.73302734 -12.48386719 22.02855469 -12.44335938 21.30273438 C-12.17481721 16.8201459 -11.69383803 12.43706503 -11 8 C-10.34 8 -9.68 8 -9 8 C-8.855625 7.195625 -8.71125 6.39125 -8.5625 5.5625 C-8 3 -8 3 -7 2 C-4.66702567 1.95907063 -2.33294775 1.95758277 0 2 C0 1.34 0 0.68 0 0 Z " fill="#000000" transform="translate(459,119)"/>
<path d="M0 0 C1.17046875 0.03609375 2.3409375 0.0721875 3.546875 0.109375 C4.43890625 0.15578125 5.3309375 0.2021875 6.25 0.25 C6.25 0.91 6.25 1.57 6.25 2.25 C6.91 2.25 7.57 2.25 8.25 2.25 C6.91666667 11.58333333 5.58333333 20.91666667 4.25 30.25 C3.59 30.25 2.93 30.25 2.25 30.25 C2.15912109 31.84328125 2.15912109 31.84328125 2.06640625 33.46875 C1.24797889 47.40671621 1.24797889 47.40671621 0.25 54.25 C-0.41 54.25 -1.07 54.25 -1.75 54.25 C-1.79898438 55.10722656 -1.84796875 55.96445313 -1.8984375 56.84765625 C-2.29534244 62.91756456 -2.74208399 68.49397411 -4.75 74.25 C-6.99893954 74.35823773 -9.24937575 74.43569645 -11.5 74.5 C-12.75296875 74.54640625 -14.0059375 74.5928125 -15.296875 74.640625 C-18.75 74.25 -18.75 74.25 -21.203125 72.234375 C-21.71359375 71.57953125 -22.2240625 70.9246875 -22.75 70.25 C-23.4925 70.889375 -24.235 71.52875 -25 72.1875 C-30.70223418 76.46417563 -37.88042433 75.96233979 -44.75 75.25 C-48.02052184 74.13652463 -50.38009679 72.7728002 -52.75 70.25 C-54.83413471 65.44742872 -55.12689436 60.41287534 -55.75 55.25 C-56.08 54.92 -56.41 54.59 -56.75 54.25 C-56.82179964 52.73071962 -56.83392007 51.20832518 -56.8125 49.6875 C-56.80347656 48.86121094 -56.79445313 48.03492188 -56.78515625 47.18359375 C-56.77355469 46.54550781 -56.76195312 45.90742188 -56.75 45.25 C-56.09 45.25 -55.43 45.25 -54.75 45.25 C-54.79125 44.198125 -54.8325 43.14625 -54.875 42.0625 C-54.75852125 38.50989827 -54.27791932 36.40133359 -52.75 33.25 C-52.09 33.25 -51.43 33.25 -50.75 33.25 C-50.54375 32.528125 -50.3375 31.80625 -50.125 31.0625 C-48.27471012 27.27781616 -46.14759562 25.72741347 -42.75 23.25 C-42.09 23.25 -41.43 23.25 -40.75 23.25 C-40.42 22.26 -40.09 21.27 -39.75 20.25 C-37.77 19.92 -35.79 19.59 -33.75 19.25 C-33.75 18.59 -33.75 17.93 -33.75 17.25 C-30.45 17.25 -27.15 17.25 -23.75 17.25 C-23.75 17.91 -23.75 18.57 -23.75 19.25 C-22.6775 19.394375 -21.605 19.53875 -20.5 19.6875 C-17.82400181 20.08889973 -15.35118809 20.56517393 -12.75 21.25 C-12.65912109 19.91195312 -12.65912109 19.91195312 -12.56640625 18.546875 C-12.48261719 17.37640625 -12.39882813 16.2059375 -12.3125 15 C-12.23128906 13.83984375 -12.15007813 12.6796875 -12.06640625 11.484375 C-11.45225726 5.2064075 -11.45225726 5.2064075 -9.109375 2.015625 C-5.93924986 -0.3567203 -3.91222335 -0.15648893 0 0 Z M-32.75 34.25 C-33.71044102 36.32690578 -33.71044102 36.32690578 -33.75 38.25 C-34.41 38.25 -35.07 38.25 -35.75 38.25 C-38.17655842 44.16473616 -38.64639337 49.88852488 -37 56.0625 C-35.49746811 58.69193082 -34.14977973 60.38350466 -31.75 62.25 C-27.65268057 63.40428834 -27.65268057 63.40428834 -23.75 62.25 C-23.75 61.26 -23.75 60.27 -23.75 59.25 C-22.76 58.92 -21.77 58.59 -20.75 58.25 C-19.04466783 54.92908998 -18.75 53.06507216 -18.75 49.25 C-18.09 49.25 -17.43 49.25 -16.75 49.25 C-15.1382954 44.4148862 -15.14883832 39.05348505 -16.75 34.25 C-18.54517687 33.23015089 -18.54517687 33.23015089 -20.6875 32.5625 C-21.39777344 32.31113281 -22.10804688 32.05976563 -22.83984375 31.80078125 C-26.8653891 30.64004118 -29.24378227 32.16118944 -32.75 34.25 Z " fill="#000000" transform="translate(865.75,164.75)"/>
<path d="M0 0 C0.91974609 -0.01546875 1.83949219 -0.0309375 2.78710938 -0.046875 C9.84772465 -0.00626758 13.39864211 1.87179858 18.75 6.5 C21.52167048 9.78494279 21.56448491 13.04251632 21.5703125 17.23046875 C21.57224609 18.55788086 21.57224609 18.55788086 21.57421875 19.91210938 C21.57035156 20.82798828 21.56648437 21.74386719 21.5625 22.6875 C21.56830078 24.0787207 21.56830078 24.0787207 21.57421875 25.49804688 C21.57292969 26.37912109 21.57164062 27.26019531 21.5703125 28.16796875 C21.56918457 28.97516357 21.56805664 29.7823584 21.56689453 30.61401367 C21.4375 32.5 21.4375 32.5 20.4375 33.5 C18.29072443 33.64671051 16.13939383 33.72754717 13.98828125 33.78125 C13.33804489 33.79965942 12.68780853 33.81806885 12.01786804 33.83703613 C9.92867316 33.89593645 7.8393923 33.94861166 5.75 34 C3.67847081 34.05160136 1.60704371 34.10471039 -0.46430969 34.16296387 C-2.35720164 34.21616385 -4.25025555 34.26350513 -6.14331055 34.31054688 C-9.35462353 34.48848182 -12.40485009 34.90388686 -15.5625 35.5 C-15.5625 37.15 -15.5625 38.8 -15.5625 40.5 C-14.9025 40.5 -14.2425 40.5 -13.5625 40.5 C-13.5625 41.16 -13.5625 41.82 -13.5625 42.5 C-12.9025 42.5 -12.2425 42.5 -11.5625 42.5 C-11.5625 43.16 -11.5625 43.82 -11.5625 44.5 C-6.9425 44.5 -2.3225 44.5 2.4375 44.5 C2.4375 43.84 2.4375 43.18 2.4375 42.5 C3.85146902 41.99242138 5.26881729 41.49425075 6.6875 41 C7.47640625 40.7215625 8.2653125 40.443125 9.078125 40.15625 C11.4375 39.5 11.4375 39.5 15.4375 39.5 C16.4375 40.5 16.4375 40.5 16.5 43.625 C15.80778015 48.20502997 12.85242611 50.35462845 9.4453125 53.21484375 C7.4375 54.5 7.4375 54.5 4.4375 54.5 C4.4375 55.16 4.4375 55.82 4.4375 56.5 C-1.06628675 58.34927235 -5.900873 58.80757838 -11.6875 58.75 C-12.86505859 58.76160156 -12.86505859 58.76160156 -14.06640625 58.7734375 C-19.62497554 58.75469022 -23.66624825 58.34357809 -27.8125 54.3125 C-29.87567199 50.99668788 -30.25966686 48.36112259 -30.5625 44.5 C-31.2225 44.5 -31.8825 44.5 -32.5625 44.5 C-32.5625 37.9 -32.5625 31.3 -32.5625 24.5 C-31.9025 24.17 -31.2425 23.84 -30.5625 23.5 C-30.315 22.2625 -30.0675 21.025 -29.8125 19.75 C-28.74777838 15.03839723 -26.43041612 13.38197671 -22.5625 10.5 C-21.758125 9.489375 -20.95375 8.47875 -20.125 7.4375 C-14.18547954 0.62878142 -8.6275583 -0.14571527 0 0 Z M-11.5625 17.5 C-11.8925 18.49 -12.2225 19.48 -12.5625 20.5 C-10.0875 20.995 -10.0875 20.995 -7.5625 21.5 C-7.5625 22.16 -7.5625 22.82 -7.5625 23.5 C-6.304375 23.685625 -5.04625 23.87125 -3.75 24.0625 C-3.04230469 24.16691406 -2.33460938 24.27132812 -1.60546875 24.37890625 C0.6400342 24.63904799 0.6400342 24.63904799 3.4375 23.5 C4.12243373 20.64221967 4.12243373 20.64221967 4.4375 17.5 C2.7068409 14.20881183 2.7068409 14.20881183 -0.75 13.5625 C-5.7427672 13.48065136 -7.54499922 14.60739944 -11.5625 17.5 Z " fill="#000000" transform="translate(904.5625,181.5)"/>
<path d="M0 0 C1.43489809 -0.13536774 2.87347107 -0.23217143 4.3125 -0.3125 C5.11300781 -0.37050781 5.91351562 -0.42851562 6.73828125 -0.48828125 C9 0 9 0 10.72265625 2.11328125 C12.13789847 5.31164211 12.68750545 8.03186137 13.125 11.5 C13.2796875 12.71945313 13.434375 13.93890625 13.59375 15.1953125 C14.19102843 20.78905475 14.64562156 26.38589953 15 32 C16.32 31.67 17.64 31.34 19 31 C19 30.34 19 29.68 19 29 C19.66 29 20.32 29 21 29 C21.66 26.36 22.32 23.72 23 21 C23.66 21 24.32 21 25 21 C25.66 17.7 26.32 14.4 27 11 C27.66 11 28.32 11 29 11 C29.0825 10.2575 29.165 9.515 29.25 8.75 C30.4616054 4.30744687 33.27074426 2.48617049 37 0 C39.33199388 -0.07905064 41.66832622 -0.08798769 44 0 C44 0.66 44 1.32 44 2 C44.66 2 45.32 2 46 2 C46 3.98 46 5.96 46 8 C45.34 8 44.68 8 44 8 C43.34 10.97 42.68 13.94 42 17 C41.34 17 40.68 17 40 17 C39.855625 17.94875 39.71125 18.8975 39.5625 19.875 C39 23 39 23 38 25 C37.34 25 36.68 25 36 25 C35.91234375 25.84175781 35.8246875 26.68351562 35.734375 27.55078125 C34.88651347 31.5330245 33.23906645 34.68803159 31.25 38.1875 C27.85619092 44.33496397 24.78900014 50.55043718 22 57 C18.87517438 57.08687496 15.75065754 57.14034568 12.625 57.1875 C11.29082031 57.22520508 11.29082031 57.22520508 9.9296875 57.26367188 C8.65351562 57.27817383 8.65351562 57.27817383 7.3515625 57.29296875 C6.17327881 57.31653442 6.17327881 57.31653442 4.97119141 57.34057617 C3.99545166 57.17199097 3.99545166 57.17199097 3 57 C-0.86045353 51.20931971 -0.14086589 43.7615625 0 37 C-0.66 37 -1.32 37 -2 37 C-3.4866163 28.86343044 -4.19378184 21.00826823 -4.1875 12.75 C-4.18814453 11.91621826 -4.18878906 11.08243652 -4.18945312 10.22338867 C-4.13535462 4.27070925 -4.13535462 4.27070925 -3 2 C-2.01 2 -1.02 2 0 2 C0 1.34 0 0.68 0 0 Z " fill="#000000" transform="translate(937,182)"/>
<path d="M0 0 C4.50980392 4.01960784 4.50980392 4.01960784 6 7 C6.09632897 8.81041793 6.12981533 10.62452753 6.125 12.4375 C6.12886719 13.88962891 6.12886719 13.88962891 6.1328125 15.37109375 C6 18 6 18 5 21 C4.34 21 3.68 21 3 21 C2.938125 21.53625 2.87625 22.0725 2.8125 22.625 C1.24377718 27.21049747 -2.04069346 30.36046231 -6 33 C-6.99 33 -7.98 33 -9 33 C-9 33.66 -9 34.32 -9 35 C-13.09725269 36.04167441 -16.61495224 35.94409525 -20.8125 35.5625 C-21.97394531 35.46066406 -23.13539063 35.35882813 -24.33203125 35.25390625 C-25.21246094 35.17011719 -26.09289062 35.08632812 -27 35 C-27 34.34 -27 33.68 -27 33 C-27.94875 32.855625 -28.8975 32.71125 -29.875 32.5625 C-33 32 -33 32 -35 31 C-38.60007949 23.19982778 -37.35816842 14.95881842 -35 7 C-34.34 7 -33.68 7 -33 7 C-32.76023437 6.39542969 -32.52046875 5.79085937 -32.2734375 5.16796875 C-30.7210994 2.52518455 -29.31809563 1.73062511 -26.625 0.3125 C-25.46871094 -0.31205078 -25.46871094 -0.31205078 -24.2890625 -0.94921875 C-16.53936433 -4.50667405 -7.34744846 -4.26152011 0 0 Z " fill="#000000" transform="translate(491,69)"/>
<path d="M0 0 C3.10501256 1.84622368 3.83621763 2.50865288 5 6 C5.34710744 12.47933884 5.34710744 12.47933884 3 16 C2.34 16 1.68 16 1 16 C1 16.66 1 17.32 1 18 C-2.14341993 19.57170996 -5.55771451 19.23175783 -9 19 C-12 18 -12 18 -13.6875 15.8125 C-15.23610013 12.49407114 -15.52820858 10.62200169 -15 7 C-11.2142563 0.97085263 -7.09364995 -2.11300211 0 0 Z " fill="#000000" transform="translate(795,221)"/>
</svg>
